/* XPM */
static char *_10f7e81ec8e4efc9dde56fb24a740c4Wp0csOncxp11JTqM[] = {
/* columns rows colors chars-per-pixel */
"64 64 63 1 ",
"  c None",
". c red",
"X c #2C662F",
"o c #377F3A",
"O c #F44336",
"+ c #4CAF50",
"@ c #4EAF51",
"# c #50AF52",
"$ c #52AF53",
"% c #54AF54",
"& c #57AF55",
"* c #59AF56",
"= c #5CAD58",
"- c #5DAF58",
"; c #61AE5B",
": c #63AE5C",
"> c #65AE5D",
", c #6BAB5F",
"< c #69AE5F",
"1 c #6FAD61",
"2 c #72AB61",
"3 c #71AB62",
"4 c #77AA64",
"5 c #79AA65",
"6 c #7CAA66",
"7 c #87A76A",
"8 c #82A868",
"9 c #85A86A",
"0 c #94A56F",
"q c #93A670",
"w c #97A571",
"e c #97A572",
"r c #9AA573",
"t c #9FA575",
"y c #9EA675",
"u c #A3A377",
"i c #A0A676",
"p c #A4A478",
"a c #AAA27A",
"s c #AEA47D",
"d c #B3A380",
"f c #B7A180",
"g c #B5A382",
"h c #BFA084",
"j c #BFA185",
"k c #C29F85",
"l c #CB9E89",
"z c #CB9E8A",
"x c #CE9E8B",
"c c #D29E8C",
"v c #D29E8D",
"b c #D59E8F",
"n c #D79D90",
"m c #D99D91",
"M c #DA9D90",
"N c #DC9C91",
"B c #DC9D91",
"V c #DE9C92",
"C c #E79B95",
"Z c #E39C94",
"A c #E49C95",
"S c #C3A188",
"D c white",
/* pixels */
"                                                                ",
"                                                                ",
"                                    .......                     ",
"                        . ............... ..                    ",
"                        ......................                  ",
"                       ........................                 ",
"                      .. ........................               ",
"                        .........................               ",
"                .  .  .............................             ",
"               . ..  ...............................            ",
"              .... .................................            ",
"              .......................................           ",
"             ...................... ..................          ",
"             . ....................  ..................         ",
"            ............................................        ",
"            ............................................        ",
"            ....................... ....................        ",
"           ............. ... ........ ........ ..........       ",
"           ............. ... ........ ........+..........       ",
"           ............ .... ...............+ +.. .......       ",
"           ........+++ +..++.......++.+.....+++++.........      ",
"          .........+++++++++....... +++...+..++++. .......      ",
"          .........+++++++++++......+++++ +..++++. .......      ",
"          ........++++++++++++++  ...+++++++++++++.........     ",
"          ........++++++++++++++++++++++++++++++++. .......     ",
"          ........++++++++++++++++++++++++++++++++. .......     ",
"         .........++++++++++++++++++++++++.....+++.........     ",
"         .........+++++++++++++++++++++++.++DD+.+++........     ",
"         .........++++..+++++++..+++++++.+++DD++.++........     ",
"         .........++++O...+++...O+++++++.........++........     ",
"         .........+++++O+.....+O++.++.+++++++++++++........     ",
"         .........+++++O++O+O++O++.++.+++++++++++++........     ",
"         .........++++++++O+O+++++.++.++++%@+++++++........     ",
"         .........++++#%%#++++++++.++.+++%;-%%+++++........     ",
"         .........+++#%%*-%%++++++.++.++%;1>63+++++. .......    ",
"         .........+++%%%4ee3++++++.++.++%-1yjs7,+++. .......    ",
"         .........++++-9yypar6=+++++++++%-7Snlf9+++. .......    ",
"         .........++++%qfdSxf4=++.++++.+#%ecMBcr+++.........    ",
"         .........+++++9SnZCl4=++......+++uMZZnr++++........    ",
"         .........+++++7flVZl6=+++++++++++rlcnl9++++........    ",
"         .........+++++1alMMa+++++++++++++9afka,++++........    ",
"         ........X++++++9flk9+++++++++++++,9rr,+++++........    ",
"         ........o+++++++++++++++++++++++++++++++++ . ......    ",
"         ........ ++++++++++++++++++++++++++++++++  . ......    ",
"         . ...... +++++++++++++++++++++++++++++++   . ......    ",
"         . ......  +++++++++++++++++++++++++++++    . ... ..    ",
"         . ......   +++++++++.............+++++       ... ..    ",
"         . ... ..    ++++++++.+++++++++++.+++++           ..    ",
"           ... ..     +++++++.+DD+++++DD+.++++                  ",
"               ..       +++++..D......D...++++                  ",
"                          +++++DD+++++DD+++++                   ",
"                           +++++++++++++++++                    ",
"                              +++++++++++++                     ",
"                                  ++++++++                      ",
"                                                                ",
"                                                                ",
"                                                                ",
"                                                                ",
"                                                                ",
"                                                                ",
"                                                                ",
"                                                                ",
"                                                                ",
"                                                                "
};
