/* XPM */
static char *b3641720d3464771f5cbfb6561d02865DBwOoQWptERVJv69[] = {
/* columns rows colors chars-per-pixel */
"64 64 47 1 ",
"  c None",
". c gray",
"X c #A643B6",
"o c #AA45BA",
"O c #AB45BA",
"+ c #AA45BB",
"@ c #AB45BB",
"# c #AA46BA",
"$ c #AB46BA",
"% c #AA47BA",
"& c #AB47BA",
"* c #AA46BB",
"= c #AB46BB",
"- c #AA47BB",
"; c #AB47BB",
": c #AC45BA",
"> c #AC46BA",
", c #AC46BB",
"< c #AC47BB",
"1 c #AB44BC",
"2 c #AB45BC",
"3 c #AB45BD",
"4 c #AA46BC",
"5 c #AB46BC",
"6 c #AA47BC",
"7 c #AB47BC",
"8 c #AB46BD",
"9 c #AA47BD",
"0 c #AB47BD",
"q c #AC45BD",
"w c #AC46BC",
"e c #AC47BC",
"r c #AD47BC",
"t c #AC46BD",
"y c #AD46BD",
"u c #AC47BD",
"i c #AD47BD",
"p c #AA48BB",
"a c #AB48BB",
"s c #AA48BC",
"d c #AB48BC",
"f c #AA48BD",
"g c #AB48BD",
"h c #AB49BD",
"j c #AB48BE",
"k c #AC48BC",
"l c #03A9F4",
/* pixels */
"                                                                ",
"                                                                ",
"                          ............                          ",
"                         .            .                         ",
"                         .            .                         ",
"                          .          .                          ",
"                          .          .                          ",
"                          .          .                          ",
"                          .          .                          ",
"                          .llll      .                          ",
"                          .          .                          ",
"                          .          .                          ",
"                          .          .                          ",
"                          .          .                          ",
"                          .llll      .                          ",
"                          .          .                          ",
"                          .          .                          ",
"                          .          .                          ",
"                          .          .                          ",
"                          .llll      .                          ",
"                          .          .                          ",
"                          .          .                          ",
"                          .          .                          ",
"                          .          .                          ",
"                          .llll      .                          ",
"                          .          .                          ",
"                          .          .                          ",
"                          .          .                          ",
"                          .          .                          ",
"                          .llll      .                          ",
"                          .          .                          ",
"                          .          .                          ",
"                          .          .                          ",
"                         ..          ..                         ",
"                        ..llll        ..                        ",
"                       ..              ..                       ",
"                      ..                ..                      ",
"                     ..                  ..                     ",
"                    ..llllll              ..                    ",
"                   ..                      ..                   ",
"                  ..      77eeeeeeeeeeed7e  ..                  ",
"                 ..  ===,,e77,,,,ee,,,,,ee77d..                 ",
"                ..=,,=====,77,e7=,,,7,,,ee,,,,..                ",
"               ..llllllllee7=7=a7ek,a==ee7eeee7..               ",
"              ..777e=aeeeeeed777=dee77a7=,717777..              ",
"             ..177eea,k=7e7777777e7777=7e=777777k..             ",
"            ..7777ee77eed77d77777d777777777777777=..            ",
"           ..77e77,ee777=a==a==7===d7ee77e777771777..           ",
"          ..lllllllll77777777=a7===777777====7e77777..          ",
"         ..e77777717771777777777777777777777777777777..         ",
"        ..d7177771777e777=77da7d=7777777777=7777717777..        ",
"       ..d777717j7e777777777777a77777117777777771777777..       ",
"      ..e777777777777e777777777=7777777777e777771777777+..      ",
"     ..lllllllllll7771e7=====77*7d7777777e7e7777777717777..     ",
"    ..X77177771777d=1=71==d77d7=7+77=7eee=7777777777777777..    ",
"   ..7X777777777d77===77===a7=7=7=========77771117++717+777..   ",
"   .1e7777771177771q7eeeeeeeeeee77eee7777777711771117117==7j.   ",
"   ..7j771177771177e7eeeeeeeeeee77eeee777eeeeee77777777777d..   ",
"    ..e777777777777e7eeeeeeee=ee7eeeeee77eeeeee7777j7jej77..    ",
"     ..777777777777e77eeeeeeekeeeeeeeee7deeeeeee7737j7jde..     ",
"      ....................................................      ",
"                                                                ",
"                                                                ",
"                                                                "
};
