/* XPM */
static char *_afd7f6076de49a5a699fc39f7c9267e5UBAf3843jn2azvh[] = {
/* columns rows colors chars-per-pixel */
"64 64 6 1 ",
"  c #D32F2F",
". c #4CAF50",
"X c #FF9800",
"o c #9C27B0",
"O c #009688",
"+ c #00B0FF",
/* pixels */
"................................................................",
".++++++++++++++++++++++++++++++++++++++++++++++++++++++++++++++.",
".++++++++++++++++++++++++++++++++++++++++++++++++++++++++++++++.",
".++++++++++++++++++++++++++++++++++++++++++++++++++++++++++++++.",
".++++++++++++++++++++++++++++++++++++++++++++++++++++++++++++++.",
".++++++++++++++++++++++++++++++++++++++++++++++++++++++++++++++.",
".++++++++++++++++++++++++++++++++++++++++++++++++++++++++++++++.",
".++++++.................++++++++++++++.....................++++.",
".++++++.               .++++++++++++++.                   .++++.",
".++++++.               .++++++++++++++.                   .++++.",
".++++++.               .++++++++++++++.                   .++++.",
".++++++.  ...........  .++++++++++++++.                   .++++.",
".++++++.  .OOOOOOOOO.  .++++++++++++++.     ...........   .++++.",
".++++++.  .OOOOOOOOO.  .++++++++++++++.     .OOOOOOOOO.   .++++.",
".++++++.  .OOOOOOOOO.  .++++++++++++++.     .OOOOOOOOO.   .++++.",
".++++++.  .OOO....OO.  .++++++++++++++.     .OOO....OO.   .++++.",
".++++++.  .OOO.oo.OO.  .++++++++++++++.     .OOO.oo.OO.   .++++.",
".++++++.  .OOO....OO.  .++++++++++++++.     .OOO....OO.   .++++.",
".++++++.  .OOOOOOOOO.  .++++++++++++++.     .OOOOOOOOO.   .++++.",
".++++++.  .OOOOOOOOO.  .++++++++++++++.     .OOOOOOOOO.   .++++.",
".++++++.  .OOOOOOOOO.  .++++++++++++++.     .OOOOOOOOO.   .++++.",
".++++++.  .OOOOOOOOO.  .++++++++++++++.     ...........   .++++.",
".++++++.  .OOOOOOOOO.  .++++++++++++++.                   .++++.",
".++++++.  ...........  .++++++++++++++.                   .++++.",
".++++++.               .++++++++++++++.                   .++++.",
".++++++.               .++++++++++++++.                   .++++.",
".++++++.................++++++++++++++.                   .++++.",
".++++++++++++++++++++++++++++.......++.....................++++.",
".++++++++++++++++++++++++++..       ..+++++++++++++++++++++++++.",
".++++++++++++++++++++++++..           ..+++++++++++++++++++++++.",
".+++++++++++++++++++++++.               .++++++++++++++++++++++.",
".+++++++++++++++++++++++.               .++++++++++++++++++++++.",
"................................................................",
"................................................................",
".++++++++++++++++++++++.                 .+++++++++++++++++++++.",
".+++++++++++++++++++++++.               .++++++++++++++++++++++.",
".+++++++++++++++++++++++.               .++++++++++++++++++++++.",
".++++++++++++++++++++++++..           ..+++.................+++.",
".++++++++++++++++++++++++++..       ..+++++.XXXXXXXXXXXXXXX.+++.",
".++++....................++++.......+++++++.XXXXXXXXXXXXXXX.+++.",
".++++.XXXXXXXXXXXXXXXXXX.++++++++++++++++++.XXXXXXXXXXXXXXX.+++.",
".++++.XXXXXXXXXXXXXXXXXX.++++++++++++++++++.XXXXXXXXXXXXXXX.+++.",
".++++.XXXXXXXXXXXXXXXXXX.++++++++++++++++++.XXXXXXXXXXXXXXX.+++.",
".++++.XXXXXXXXXXXXXXXXXX.++++++++++++++++++.XXXXXX...XXXXXX.+++.",
".++++.XXXXXX.....XXXXXXX.++++++++++++++++++.XXXX..OOO..XXXX.+++.",
".++++.XXXXX.OOOOO.XXXXXX.++++++++++++++++++.XXX.OOOOOOO.XXX.+++.",
".++++.XXXX.OOOOOOO.XXXXX.++++++++++++++++++.XXX.OOOOOOO.XXX.+++.",
".++++.XXX.OOOOOOOOO.XXXX.++++++++++++++++++.XX.OOOOOOOOO.XX.+++.",
".++++.XXX.OOOOOOOOO.XXXX.++++++++++++++++++.XX.OOOOOOOOO.XX.+++.",
".++++.XXX.OOOOOOOOO.XXXX.++++++++++++++++++.XX.OOOOOOOOO.XX.+++.",
".++++.XXXX.OOOOOOO.XXXXX.++++++++++++++++++.XX.OOOOOOOOO.XX.+++.",
".++++.XXXXX.OOOOO.XXXXXX.++++++++++++++++++.XX.OOOOOOOOO.XX.+++.",
".++++.XXXXXX.....XXXXXXX.++++++++++++++++++.XXX.OOOOOOO.XXX.+++.",
".++++.XXXXXXXXXXXXXXXXXX.++++++++++++++++++.XXX.OOOOOOO.XXX.+++.",
".++++.XXXXXXXXXXXXXXXXXX.++++++++++++++++++.XXXX..OOO..XXXX.+++.",
".++++.XXXXXXXXXXXXXXXXXX.++++++++++++++++++.XXXXXX...XXXXXX.+++.",
".++++....................++++++++++++++++++.XXXXXXXXXXXXXXX.+++.",
".++++++++++++++++++++++++++++++++++++++++++.XXXXXXXXXXXXXXX.+++.",
".++++++++++++++++++++++++++++++++++++++++++.................+++.",
".++++++++++++++++++++++++++++++++++++++++++++++++++++++++++++++.",
".++++++++++++++++++++++++++++++++++++++++++++++++++++++++++++++.",
".++++++++++++++++++++++++++++++++++++++++++++++++++++++++++++++.",
".++++++++++++++++++++++++++++++++++++++++++++++++++++++++++++++.",
"................................................................"
};
