/* XPM */
static char *_2478cbe7ef749c693c266410f9de3c8YjzlcP36rIMrjBBp[] = {
/* columns rows colors chars-per-pixel */
"64 64 145 2 ",
"   c #08151E",
".  c #101B1F",
"X  c #0A1623",
"o  c #0E1A25",
"O  c #0E1728",
"+  c #0E1B29",
"@  c #121D26",
"#  c #121E2A",
"$  c #141F30",
"%  c #0F202A",
"&  c #162127",
"*  c #15212B",
"=  c #19242D",
"-  c #1C292F",
";  c #162331",
":  c #1A2632",
">  c #1D2A34",
",  c #1C2739",
"<  c #1F2B39",
"1  c #212C36",
"2  c #212D3A",
"3  c #24313D",
"4  c #29343E",
"5  c #232E40",
"6  c #263241",
"7  c #2A3643",
"8  c #2D3946",
"9  c #2A3749",
"0  c #2E3A49",
"q  c #313B46",
"w  c #323D4B",
"e  c #333F51",
"r  c #34414E",
"t  c #38424E",
"y  c #364252",
"u  c #3A4655",
"i  c #3D4956",
"p  c #3B4759",
"a  c #3E4A5B",
"s  c #3F4E61",
"d  c #414B57",
"f  c #414C5D",
"g  c #43505E",
"h  c #49535F",
"j  c #424E61",
"k  c #455262",
"l  c #495565",
"z  c #465568",
"x  c #495568",
"c  c #4D5A6B",
"v  c #515D6D",
"b  c #4F5E71",
"n  c #525F71",
"m  c #53616E",
"M  c #556373",
"N  c #596575",
"B  c #5A6875",
"V  c #576379",
"C  c #596679",
"Z  c #5D6B7B",
"A  c #616E77",
"S  c #616E7D",
"D  c #63717E",
"F  c #5F6D81",
"G  c #626E81",
"H  c #657285",
"J  c #647386",
"K  c #667386",
"L  c #647184",
"P  c #647283",
"I  c #687484",
"U  c #697585",
"Y  c #697784",
"T  c #697686",
"R  c #6A7787",
"E  c #6B7787",
"W  c #697585",
"Q  c #6A7885",
"!  c #667288",
"~  c #687588",
"^  c #6A778A",
"/  c #697588",
"(  c #6B788B",
")  c #6D7A8B",
"_  c #6A798C",
"`  c #6C798C",
"'  c #6D7A8D",
"]  c #6E7B8E",
"[  c #6F7C8C",
"{  c #6C7A8B",
"}  c #737F8D",
"|  c #717E8F",
" . c #737F8F",
".. c #717E8D",
"X. c #6F7E91",
"o. c #6E7D90",
"O. c #717E91",
"+. c #727F90",
"@. c #727E92",
"#. c #758191",
"$. c #748191",
"%. c #748192",
"&. c #768393",
"*. c #738295",
"=. c #748194",
"-. c #758295",
";. c #778294",
":. c #768396",
">. c #778494",
",. c #778497",
"<. c #758293",
"1. c #798595",
"2. c #798496",
"3. c #788596",
"4. c #7B8996",
"5. c #778699",
"6. c #758499",
"7. c #798699",
"8. c #7B8698",
"9. c #78879A",
"0. c #798699",
"q. c #7B8899",
"w. c #7B889B",
"e. c #7C8898",
"r. c #7C899A",
"t. c #7D8A9B",
"y. c #7E8C99",
"u. c #7B8A9D",
"i. c #7D8A9D",
"p. c #7E8B9C",
"a. c #7C8B9E",
"s. c #7F8C9D",
"d. c #7C8A9C",
"f. c #7E8DA0",
"g. c #808D9E",
"h. c #818E9F",
"j. c #818D9E",
"k. c #84929F",
"l. c #808DA0",
"z. c #828FA0",
"x. c #818EA0",
"c. c #8390A1",
"v. c #8491A2",
"b. c #8491A2",
"n. c #8B98A8",
/* pixels */
"& o & & & * * * ; * * ; * ; ; * = = = @ = - = @ = = # = = @ # # & @ & & * * & - & * & & & & & & * + * * & * # $ # $ $ : $ = = . ",
"* & * & # & + + + + + # # # # # @ @ @ @ @ @ @ o # @ @ # @ # @ @ . @ o @ & o .   o % % . . % . % & + # * @ & @ # $ $ O O O @ @ . ",
"% . & & & - 3 6 < 2 2 < 2 2 < < 3 < > < 2 2 2 2 1 1 1 1 2 4 6 6 3 7 4 > 2 3 > > > > > 3 3 3 3 3 6 > 2 2 1 1 > 4 2 2 5 7 3 = = = ",
"& = > 4 8 d B S Z S S S S S S S P D Z D S S S S S S S S E @.2.@.} ;.R Z A J J Y D Z J ] &.&.*.>.#.S S S A Z D $.j.@.@.j.m & @ - ",
"% % - 3 8 i D R S S L S D P I P G G D G Z D D J L L ! G ' j.x.x.f.c.*.G D Z Z G Z Z G $.y.f.a.u.p.R D D D D Y y.h.p.s.c.A O @ 1 ",
"& & > 4 8 i Z D P I L S N N N N C F J J F D J J I S n n S G ( ^ _ _ ~ J G J / J _ ~ ~ ] *.6.*.$.#.Z M B B m Z %.O.:.u.w.N @ & : ",
"& * : 8 8 i A Z S G S v j f f f s M F F F F Z Z G n x f p j k j i p c Z G o.a.a.5.5.*._ J J J J G k a k g i l A S ' 5.w.Z % : * ",
"% & : 7 7 i Y J P W L n k f f f i M _ Y J Y $.D ` S x f j p j s s s b G J o.f.a.f.f.u.~ Z Z F J L l a f g i l J F ( u.f.Z X & 3 ",
"$ @ 1 7 0 d N n N n n v j p f p k x M M M m m B B c c z c a a a p s s b B Z F J Y *.$.D G G B b m g i s a i k v M V f.f.V % % < ",
"= @ : 7 7 w j f d d j p p f j f y i s s s a a s a z B D C s i a i p s s s a a a M P J Z D Z c i z s i s a a a l s b 6.p.C + % > ",
"@ @ 1 7 w e j f j j p p p j f p a i f p i i a a y z A D Z s i i i i a a a i a a m B D D P Z c a a a a a a s a f p c 6.f.Z % % > ",
"& # $ 7 0 0 e e p p p j j j j f f f a d a a s a a s c m m a a f g s s s g g a f z m m b M m k p a s s a i s f f a b f.f.B + % > ",
"= * : 7 q 7 w 0 t p f p j f f f p d p f f f f a s i a i j d f f a a a a i a p p i s a a a a i a s i s i a f f f a n 8.j.B + & > ",
"@ & : 4 q 8 e 0 y j j j j f d f f j j j j f f a a i s i f p j f i a a a s g j j i s s i a i a j i s g a d f f f a v 2.r.N + & > ",
"& * * > 1 1 , , 5 e e u h j d j p j j j a a a a g a l s j p j f g g s s a a a a s s a a k a a s a g s g f f f f j x | #.m + & > ",
"% & % & # @ O $ 5 7 7 w d d p f f f f p s a s k a a s i j p f f s i a a a a s a s a a s k a p a g a i i d d d j a j P P x X & 3 ",
"& & & & & = & # 1 4 t t d h d d d h j j j j j j f f f f f f f p f f f f f a a f f f f f f a a a g k a i g g i s a z Z ^ l o o : ",
"& & & & & & @ = = 1 1 1 4 4 t d h d p j p d j p f j p f f d f d i f a f f f f f f i f a a f a a i a g a a g g N N N S J l # # = ",
"& & & & & & = @ . = & O O = 4 h h d d d j p j j j p f p f f d f f f a a f f f f f f i f f f f f a f j a a i k P / F Z P l + + = ",
"& & & & & & = @ O = = = = = 4 h t j j d j d j j f f f f p f f d f f f f a f f f f f f f a f f f f a f f a i k S L F L J x + & * ",
"& & & & # = # & = = = = = = , 4 = t d d d d d p f p j f f a f a a f f f f f f a f f a f f f f f f a d a f a k S F L O.>.m * # & ",
"& & & & & # # = = O O O O = O = O q h d j j d d f f f f f f f j f f f f f f f f f f f f f f a i a f f p a a k D P ( p.c.Z * + * ",
"& & & & & & = @ = = = = 1 = = O = q d d d d d x f a a f f f f a f f f i p a p a a a f f f f f d f j j f f l l S G / :.w.M * + = ",
"& & & & & @ = = = 4 q 4 4 4 , , O , , , , $ 5 t f f f f f a f f f a u w w w w w 9 w r u d f f f a a f f m Z B D G Z R ) l + + - ",
"& & & = & = O O 1 4 q q e q , O = @ & O % + : i g f f i j j a f a f y 8 8 8 8 8 0 9 8 u f f f f a s i k D Q D D G G Z L x @ # # ",
"& & & & & = 1 = 1 q q q q q 5 , , & & & ; * * 0 u u g f a k a f i f u 8 8 0 9 0 0 0 8 y f i f f f a i g B Z C P L G S R c # : = ",
"& & & & & = 4 4 t d d d d d t q 4 1 = # ; * & : = 2 u f i a a i 7 8 3 ; # ; ; * ; ; ; 6 8 w u f a f i a g h c Z F F F P l + * * ",
"& O & & . 1 q q t d d d j d t 5 q 2 # O & & o & # = u g f k k i w w 6 * # $ # # # # # 2 8 w i f f j g a a i z A L L L J k & * 2 ",
"= & = @ @ = 4 4 t d d d t t t t w 5 $ $ 1 : : = * * 0 u t i a r 6 6 2 ; ; ; , ; ; ; ; 6 w q y d a a f j a i z B C C L P k # * > ",
"= & = @ & = = = 1 q q 4 $ , 5 d d 0 6 7 7 7 4 1 & o : : > 0 0 6 ; ; 2 8 9 0 w 8 8 8 0 i f f f h f a a f a i a c k c G P l + # : ",
"= & = = O = = . = q q , O = q h f e 0 w q q q - % % & o : 7 7 7 # + > 9 0 0 w 0 8 8 8 u f d f f j f j j a i a a s k P R c * * 2 ",
"# @ = # = = = O = q q , , = 7 d d w 4 7 7 7 q @ * * & o - 4 4 4 > # 2 q 0 6 8 8 0 8 8 u d i p i i i p f i a a p p j C D f o o > ",
"& & * & & & * * # * % < 0 w w 0 7 : = # @ @ # * = & = & = & @ = 8 q 8 4 0 8 4 8 8 8 8 8 8 8 8 0 8 8 8 7 6 9 7 7 6 9 7 w 7 @ # 4 ",
"& * & * % & & & @ % * > 9 e 9 9 q 1 @ # = : = # # = @ @ @ & & - 0 q 8 8 r 4 4 r 8 q 8 8 8 7 9 8 q w 8 8 r 9 r 9 r r 0 0 4 @ o = ",
"& & * & & * & % * & ; , 6 9 5 6 3 - * * = # * * & = = # - = & & 3 3 3 3 3 6 4 4 6 6 6 6 4 6 6 6 3 3 6 3 6 3 6 6 3 6 3 2 2 : @ 1 ",
"* * & * & * & & * + ; % $ ; $ ; * & * # # # % : = = $ @ = @ & % * * = * & * * * $ # = # # ; # ; % * * ; $ $ $ % ; & * % $ = = 1 ",
"= = # # * * & % o % & + + + X + + X + o + & + + O O O o *   * : # O # # + + + X O O O O O O O O + X + + + + % % + X + + @ O # 1 ",
"& # @ = & * & % > t y r y y y p y i g a i r y a f d d d i * * > 2 > 7 u y y i y u e u y y u y e y p a i y r y a s a a l w # = ; ",
"= # @ = * * & @ t D P D Q D J P D $.b.f.E D E j.b.j.k.k.{ > % % y w l S Y P Y P I I I L W W I I _ &.f.4._ J *.u.c.c.t.c.N : ; # ",
"& & # @ & * o @ 8 Q D D E S P S Z $.y.4.R S /  .j.@.j.j.Y : + , 8 6 f P R P D P L S L I G G L L G *.f.4.J C J 9.>.y.w.n.N + + ; ",
"@ @ & = # # 4 1 r l v c l c C P D P $.D M z b *.) ) ) ..Z # % ; 9 0 y x v v v v l c c n c x S E P Y ( ( n x n ! _ [ ' #.c + * # ",
"= & & = = 1 q 7 0 i f f a i v S D D $.Z z i s M Z Z S G M ; * , w 9 y j f f a p d f p f p f n L Z J P Z j f x G S Z S Y k + ; ; ",
"& & & & O 1 q q y s a s g a v D F D F B z i z B G S I I N * # : 0 0 w f f f k g f f p f f j n S Z J S C j j l S L P P R z # : + ",
"& = & & @ 1 w q t f f g a i l c c c b c s s s z v x Z I M * + : w 9 w y y u f f d f f j f f l v c c v c j p j c c M Z J l + * ; ",
"- & = # @ ; w 6 r a a a i i a i i i i s s s i s a f V S B ; o : 9 8 8 8 w y f f p f d f f p i p a i a s f p d j d k A I k # # ; ",
"@ @ # # # > 8 8 r g g a a s s s s a s i s g g s j j S G M : o ; 8 8 8 6 7 y f k f f i f f p f f g i a a j f j j j l P U g # @ = ",
"& & - 4 4 7 i p i s i i s i s i g s s i s s i i p f A S N ; o > w 9 6 2 : 2 w w e e w p f f f f g i g i j d f f f j S I h $ # ; ",
"& @ - 7 8 w f f s h i s s i a a a s s i i i s s f f G S N > o : 0 8 2 ; # 2 0 9 6 7 0 p f f f f g i g a j d f d j l D I h : @ @ ",
"# & - 4 8 w f f f f a f f p f f d f f j f a a k a a F L B # # : q 7 1 $ $ 2 8 w 0 7 7 d f f f a a a a a i a i i i c Z J z o % % ",
"# @ - 7 0 w f a f a j f a j f f p j f a f f f a a l o.5.L * # : q q q 7 7 2 > : , : : 8 e w w w 0 r r r r r r r 6 r y p r o & . ",
"# @ 1 4 0 w f f f a j a f f f f f j f y i a a a p k 5.c.^ * # ; q q q q q 1 o # O O O 1 q q w 7 6 7 7 7 6 6 9 9 r 6 9 6 3 % % & ",
"# @ : 7 8 r f f f f a j p f a f f f f f g g a k s k %.p.R ; # & 4 q 4 4 q 2 * * = = $ 2 q q q 7 9 9 r 7 6 3 r r r 5 r 9 3 * & & ",
"# @ : 6 8 w g a j p p f j f f p a a a l m Z m x a z @.z.` : # # @ = = = - - & & = $ # = - * > : > : : : : : % : , $ , ; ; % % @ ",
"& & : 7 0 w f f f f j j f f f f a f a j D [ S g e s @.x.) ; # & & $ # @ o @ & o # # @ @ % X o o + % + + X % % % O O $ + % * : & ",
"# & : 7 8 r a a p j f p p f f f f f i a m B N c c b 2.i./ $ @ * - @ = 1 - : 2 1 : 1 1 1 3 3 3 2 5 6 6 > : - < < , 5 2 6 < X * & ",
"& # : 7 8 w f f p f f f j f f f f a i a g g c P 9._ l.f.I - # = q 7 h S S S D B S S S E >.>.>.$.*.*.6.$.D A $.$.9.@.%.w.N & % * ",
"# # = 7 q w f d j f f f f f f f f p j f f f g $.p.6.p.s._ * ; : 8 6 a Z Y J J J G Z D $.u.u.u.5.y.t.b.4.Y A P e.f.2.j.j.n O = # ",
"$ # : 7 7 w f f j p p f p j f f j p j f f d s Q 0.:.f.z.' * * * y 0 s V Z M M B F F J _ *.*.9.u.s.{ P Y Z N S :.@.@.j.j.S O = = ",
"# @ = 7 0 e f f f f f f p f p f f f j a i a g D G L :.p.( * : ; 9 9 y s s s s s n F F G F J o.9.>.c i a g i l D ! E l.j.M X @ # ",
"# @ , 7 7 w f f p j f f f f f f f a f f g a g Z L L p.z.) * + * 9 9 r a p a s p V ! ! G F J 6.f.w.c r i g a k S G ! l.l.B # & = ",
"# # - 4 q w f f j j j p j f f f j a f f a a j n V V =.:.P * & : 0 7 y a s s k a b C V M V C L ! J c i a g g k M n S @.@.M # # * ",
"# # 1 7 9 w f f p p j f p j p f j a a f a a a k a a Z P C + * : 9 9 y i a a s i i f p p a a k a k y a a a a u f j k L W x O o # ",
"# @ = 7 9 t d j j j p j p f f f f a a a g i a a j j F G B * + * 0 8 r g g a s a f f p a a a s p a a k k f f f j j j L / c # # = ",
"& # = 7 9 w j d j p f f f f f f g a i g g a j i s a Z G C * & : r 6 r g a i g a f f f j j a k a s a s a p d f j j j ` ' b # # * "
};
