/* XPM */
static char *_f34036f0a2b419c9ba891a0d0e0dcabTG2nu4aF7DJUw9TU[] = {
/* columns rows colors chars-per-pixel */
"64 64 5 1 ",
"  c black",
". c #D32F2F",
"X c #EF5350",
"o c #FFC107",
"O c #FFCDD2",
/* pixels */
"                                                                ",
" XXXXXXX XXXXXXXX XXXXXXXX XXXXXXXXXXX XXXXXX XXXXXXXXXXXXX XXX ",
" XXXXXXX XXXXXXXX XXXXXXXX XXXXXXXXXXX XXXXXX XXXXXXXXXXXXX XXX ",
" XXXXXXX XXXXXXXX XXXXXXXX XXXXXXXXXXX XXXXXX XXXXXXXXXXXXX XXX ",
" XXXXXXX XXXXXXXX XXXXXXXX XXXXXXXXXXX XXXXXX XXXXXXXXXXXXX XXX ",
" XXXXXXX XXXXXXXX XXXXXXXX XXXXXXXXXXX XXXXXX XXXXXXXXXXXXX XXX ",
" XXXXXXX XXXXXXXX XXXXXXXX XXXXXXXXXXX XXXXXX XXXXXXXXXXXXX XXX ",
" XXXXXXX XXXXXXXX XXXXXXXX XXXXXXXXXXX XXXXXX XXXXXXXXXXXXX XXX ",
" XXXXXXX XXXXXXXX XXXXXXXX XXXXXXXXXXX XXXXXX XXXXXXXXXXXXX XXX ",
" XXXXXXX XXXXXXXX XXXXXXXX XXXXXXXXXXX XXXXXX XXXXXXXXXXXXX XXX ",
" XXXXXXX XXXXXXXX XXXXXXXX XXXXXXXXXXX XXXXXX XXXXXXXXXXXXX XXX ",
"                                                                ",
"                                                                ",
" OOOOOOO OOOOOOOO OOOOOOOO OOOOOOOOOOO OOOOOO OOOOOOOOOOOOO OOO ",
" OOOOOOO OOOOOOOO OOOOOOOO OOOOOOOOOOO OOOOOO OOOOOOOOOOOOO OOO ",
" OOOOOOO OOOOOOOO OOOOOOOO OOOOOOOOOOO OOOOOO OOOOOOOOOOOOO OOO ",
" OOOOOOO OOOOOOOO OOOOOOOO OOOOOOOOOOO OOOOOO OOOOOOOOOOOOO OOO ",
" OOOOOOO OOOOOOOO OOOOOOOO OOOOOOOOOOO OOOOOO OOOOOOOOOOOOO OOO ",
" OOOOOOO OOOOOOOO OOOOOOOO OOOOOOOOOOO OOOOOO OOOOOOOOOOOOO OOO ",
" OOOOOOO OOOOOOOO OOOOOOOO OOOOOOOOOOO OOOOOO OOOOOOOOOOOOO OOO ",
" OOOOOOO OOOOOOOO OOOOOOOO OOOOOOOOOOO OOOOOO OOOOOOOOOOOOO OOO ",
" OOOOOOO OOOOOOOO OOOOOOOO OOOOOOOOOOO OOOOOO OOOOOOOOOOOOO OOO ",
" OOOOOOO OOOOOOOO OOOOOOOO OOOOOOOOOOO OOOOOO OOOOOOOOOOOOO OOO ",
"                                                                ",
"                                                                ",
" XXXXXXX XXXXXXXX XXXXXXXX XXXXXXXXXXX XXXXXX XXXXXXXXXXXXX XXX ",
" XXXXXXX XXXXXXXX XXXXXXXX XXXXXXXXXXX XXXXXX XXXXXXXXXXXXX XXX ",
" XXXXXXX XXXXXXXX XXXXXXXX XXXXXXXXXXX XXXXXX XXXXXXXXXXXXX XXX ",
" XXXXXXX XXXXXXXX XXXXXXXX XXXXXXXXXXX XXXXXX XXXXXXXXXXXXX XXX ",
" XXXXXXX XXXXXXXX XXXXXXXX XXXXXXXXXXX XXXXXX XXXXXXXXXXXXX XXX ",
" XXXXXXX XXXXXXXX XXXXXXXX XXXXXXXXXXX XXXXXX XXXXXXXXXXXXX XXX ",
" XXXXXXX XXXXXXXX XXXXXXXX XXXXXXXXXXX XXXXXX XXXXXXXXXXXXX XXX ",
" XXXXXXX XXXXXXXX XXXXXXXX XXXXXXXXXXX XXXXXX XXXXXXXXXXXXX XXX ",
" XXXXXXX XXXXXXXX XXXXXXXX XXXXXXXXXXX XXXXXX XXXXXXXXXXXXX XXX ",
"                                                                ",
"                                                                ",
" OOOOOOO OOOOOOOO OOOOOOOO OOOOOOOOOOO OOOOOO OOOOOOOOOOOOO OOO ",
" OOOOOOO OOOOOOOO OOOOOOOO OOOOOOOOOOO OOOOOO OOOOOOOOOOOOO OOO ",
" OOOOOOO OOOOOOOO OOOOOOOO OOOOOOOOOOO OOOOOO OOOOOOOOOOOOO OOO ",
" OOOOOOO OOOOOOOO OOOOOOOO OOOOOOOOOOO OOOOOO OOOOOOOOOOOOO OOO ",
" OOOOOOO OOOOOOOO OOOOOOOO OOOOOOOOOOO OOOOOO OOOOOOOOOOOOO OOO ",
" OOOOOOO OOOOOOOO OOOOOOOO OOOOOOOOOOO OOOOOO OOOOOOOOOOOOO OOO ",
" OOOOOOO OOOOOOOO OOOOOOOO OOOOOOOOOOO OOOOOO OOOOOOOOOOOOO OOO ",
" OOOOOOO OOOOOOOO OOOOOOOO OOOOOOOOOOO OOOOOO OOOOOOOOOOOOO OOO ",
" OOOOOOO OOOOOOOO OOOOOOOO OOOOOOOOOOO OOOOOO OOOOOOOOOOOOO OOO ",
" OOOOOOO OOOOOOOO OOOOOOOO OOOOOOOOOOO OOOOOO OOOOOOOOOOOOO OOO ",
"                                                                ",
"                                                                ",
" ....... ........ ........ ........... ...... ............. ... ",
" ....... ........ ........ ........... ...... ............. ... ",
" ....... ........ ........ ........... ...... ............. ... ",
" ....... ........ ........ ........... ...... ............. ... ",
" ....... ........ ........ ........... ...... ............. ... ",
" ....... ........ ........ ........... ...... ............. ... ",
" ....... ........ ........ ........... ...... ............. ... ",
" ....... ........ ........ ........... ...... ............. ... ",
"                                                                ",
"                                                                ",
" ooooooo oooooooo oooooooo ooooooooooo oooooo ooooooooooooo ooo ",
" ooooooo oooooooo oooooooo ooooooooooo oooooo ooooooooooooo ooo ",
" ooooooo oooooooo oooooooo ooooooooooo oooooo ooooooooooooo ooo ",
" ooooooo oooooooo oooooooo ooooooooooo oooooo ooooooooooooo ooo ",
" ooooooo          oooooooo             oooooo               ooo ",
"                                                                "
};
